# xmcd
#
# Track frame offsets: 
#        150
#        16462
#        32630
#
# Disc length: 609 seconds
#
# Revision: 1
# Processed by: cddbd v1.5.2PL0 Copyright (c) Steve Scherf et al.
# Submitted via: ExactAudioCopy v1.0b3
#
DISCID=1a025f03
DTITLE=Борис Гребенщиков - Праздник Урожая Во Дворце Труда
DYEAR=2013
DGENRE=Rock
TTITLE0=Губернатор
TTITLE1=Праздник Урожая Во Дворце Труда
TTITLE2=Не Было Такой и Не Будет
EXTD=
EXTT0=
EXTT1=
EXTT2=
PLAYORDER=
